#!OML:ASF G:\JayActor3\Patient Classification 1\Patient 1\Session 5\male.ASF
:FULLY-SPECIFIED
:DEGREES
471
root -20.4707 16.7517 -6.05691 701.815 -98.1742 -707.261
lowerback 1.16182 0.843929 3.30856
upperback 2.11576 1.12464 -1.59356
thorax 1.61927 0.618922 -3.49181
lowerneck -12.3194 0.884916 3.51511
upperneck 15.1066 0.369431 0.344785
head 6.64479 0.370676 -0.436466
rclavicle 1.98785e-016 1.19271e-014
rhumerus -30.4748 -6.88663 -89.0074
rradius 22.0982
rwrist 10.7645
rhand -17.9432 -4.89065
rfingers 7.12502
rthumb 8.32518 -34.7066
lclavicle 1.98785e-016 1.19271e-014
lhumerus -27.3603 7.56269 81.6608
lradius 22.5199
lwrist 9.00885
lhand -18.1077 28.7624
lfingers 7.12502
lthumb 8.16637 58.5846
rfemur -10.959 1.33602 23.1103
rtibia 73.9735
rfoot -6.62373 -12.9769
rtoes 4.28434
lfemur -10.2318 9.65308 -21.038
ltibia 28.1712
lfoot -12.0319 10.2076
ltoes -3.57274
472
root -20.6198 16.7546 -6.05011 702.436 -98.0463 -707.987
lowerback 1.16737 0.719306 3.12924
upperback 2.17167 0.95655 -1.56455
thorax 1.65521 0.532712 -3.36129
lowerneck -12.3992 0.997226 3.6097
upperneck 15.4612 0.518482 0.179035
head 6.77573 0.435916 -0.491455
rclavicle 1.08524e-014 3.97569e-015
rhumerus -30.6203 -7.10471 -88.7527
rradius 21.9582
rwrist 11.1777
rhand -17.8558 -4.84332
rfingers 7.12502
rthumb 8.40948 -34.6559
lclavicle 1.08524e-014 3.97569e-015
lhumerus -26.8919 6.7658 82.0725
lradius 23.3181
lwrist 9.58228
lhand -18.1198 29.5647
lfingers 7.12502
lthumb 8.15468 59.3873
rfemur -12.1824 1.49288 23.1202
rtibia 74.185
rfoot -8.08323 -12.3705
rtoes 3.27858
lfemur -9.48933 9.7298 -21.1806
ltibia 28.066
lfoot -12.4961 10.0831
ltoes -3.5392
473
root -20.7681 16.7554 -6.04533 703.272 -97.8575 -708.926
lowerback 1.17238 0.582664 2.88135
upperback 2.22514 0.77238 -1.5396
thorax 1.68781 0.437075 -3.19646
lowerneck -12.4684 1.10571 3.69651
upperneck 15.7979 0.663783 0.0225027
head 6.8997 0.499026 -0.542526
rclavicle 6.47293e-015 -1.31198e-014
rhumerus -30.7897 -7.24796 -88.5223
rradius 21.8992
rwrist 11.3992
rhand -17.786 -4.80044
rfingers 7.12502
rthumb 8.47691 -34.6103
lclavicle 6.47293e-015 -1.31198e-014
lhumerus -26.4409 5.9741 82.4601
lradius 24.124
lwrist 10.1447
lhand -18.1143 30.2402
lfingers 7.12502
lthumb 8.16001 60.0626
rfemur -13.3845 1.60695 23.0907
rtibia 74.2482
rfoot -9.5505 -11.916
rtoes 2.37094
lfemur -8.76288 9.8021 -21.3584
ltibia 27.9574
lfoot -12.9053 9.92963
ltoes -3.68861
474
root -20.9153 16.7537 -6.04234 704.298 -97.6412 -710.043
lowerback 1.17858 0.443297 2.58605
upperback 2.27491 0.584659 -1.51558
thorax 1.71683 0.338569 -3.00599
lowerneck -12.5385 1.20714 3.77067
upperneck 16.1158 0.800568 -0.119757
head 7.01821 0.557999 -0.587654
rclavicle -2.21521e-014 1.98785e-015
rhumerus -30.9598 -7.32687 -88.3192
rradius 21.8906
rwrist 11.4291
rhand -17.7384 -4.75292
rfingers 7.12502
rthumb 8.52284 -34.5609
lclavicle -2.21521e-014 1.98785e-015
lhumerus -25.9941 5.20464 82.8198
lradius 24.9204
lwrist 10.6925
lhand -18.0961 30.7173
lfingers 7.12502
lthumb 8.17754 60.5391
rfemur -14.5757 1.70969 23.041
rtibia 74.1668
rfoot -10.9948 -11.629
rtoes 1.54096
lfemur -8.06662 9.87514 -21.5537
ltibia 27.8612
lfoot -13.2791 9.76493
ltoes -3.97129
475
root -21.0617 16.7498 -6.04034 705.51 -97.4117 -711.338
lowerback 1.18656 0.304974 2.26351
upperback 2.3228 0.398439 -1.49484
thorax 1.74492 0.240129 -2.80367
lowerneck -12.6088 1.30337 3.83112
upperneck 16.4097 0.930948 -0.243671
head 7.12933 0.614206 -0.625122
rclavicle -1.57164e-015 -5.56597e-015
rhumerus -31.1432 -7.34064 -88.1474
rradius 21.9544
rwrist 11.2619
rhand -17.7113 -4.70168
rfingers 7.12502
rthumb 8.54896 -34.5086
lclavicle -1.57164e-015 -5.56597e-015
lhumerus -25.5458 4.44264 83.1555
lradius 25.7045
lwrist 11.2392
lhand -18.0733 31.0001
lfingers 7.12502
lthumb 8.19962 60.821
rfemur -15.7501 1.8122 22.9714
rtibia 73.9411
rfoot -12.3617 -11.5123
rtoes 0.85754
lfemur -7.40478 9.95413 -21.763
ltibia 27.7916
lfoot -13.6328 9.6082
ltoes -4.39359
